<?xml version="1.0" encoding="utf-8"?>
<!-- Generator: Adobe Illustrator 16.0.0, SVG Export Plug-In . SVG Version: 6.00 Build 0)  -->
<!DOCTYPE svg PUBLIC "-//W3C//DTD SVG 1.1//EN" "http://www.w3.org/Graphics/SVG/1.1/DTD/svg11.dtd">
<svg version="1.1"
	 id="svg2" xmlns:dc="http://purl.org/dc/elements/1.1/" xmlns:cc="http://creativecommons.org/ns#" xmlns:rdf="http://www.w3.org/1999/02/22-rdf-syntax-ns#" xmlns:svg="http://www.w3.org/2000/svg" xmlns:sodipodi="http://sodipodi.sourceforge.net/DTD/sodipodi-0.dtd" xmlns:inkscape="http://www.inkscape.org/namespaces/inkscape" sodipodi:docname="logo - simple.svg" inkscape:version="0.48.5 r10040"
	 xmlns="http://www.w3.org/2000/svg" xmlns:xlink="http://www.w3.org/1999/xlink" x="0px" y="0px" width="450.082px" height="150px"
	 viewBox="0 0 450.082 150" enable-background="new 0 0 450.082 150" xml:space="preserve">
<defs>
	
	
		<inkscape:perspective  id="perspective5787" inkscape:vp_z="744.09448 : 526.18109 : 1" inkscape:vp_y="0 : 1000 : 0" inkscape:vp_x="0 : 526.18109 : 1" sodipodi:type="inkscape:persp3d" inkscape:persp3d-origin="372.04724 : 350.78739 : 1">
		</inkscape:perspective>
</defs>
<sodipodi:namedview  fit-margin-left="0" fit-margin-top="0" showguides="true" showgrid="false" inkscape:cy="48.780073" inkscape:cx="222.88926" inkscape:zoom="1.4" borderopacity="1.0" bordercolor="#666666" pagecolor="#ffffff" id="base" fit-margin-bottom="0" fit-margin-right="0" inkscape:window-maximized="1" inkscape:window-y="24" inkscape:window-x="65" inkscape:window-height="876" inkscape:window-width="1535" inkscape:snap-page="true" inkscape:guide-bbox="true" inkscape:current-layer="flowRoot3000" inkscape:document-units="px" inkscape:pageshadow="2" inkscape:pageopacity="0.0">
	<sodipodi:guide  position="0,204.98037" orientation="0,1" id="guide3625"></sodipodi:guide>
	<sodipodi:guide  position="149.50258,185.2824" orientation="1,0" id="guide3627"></sodipodi:guide>
	<sodipodi:guide  position="300.0153,204.98037" orientation="1,0" id="guide3629"></sodipodi:guide>
	<sodipodi:guide  position="450,128.99056" orientation="1,0" id="guide3631"></sodipodi:guide>
	<sodipodi:guide  position="0,164.25841" orientation="1,0" id="guide2990"></sodipodi:guide>
</sodipodi:namedview>
<g id="layer1" transform="translate(0,-902.35453)" inkscape:label="Layer 1" inkscape:groupmode="layer">
	<path id="rect2997-83-7-2-3-4-9" inkscape:connector-curvature="0" fill="#FF2A2A" d="M45.719,902.354
		c12.482,0,23.286,3.743,32.25,11.094s13.5,16.17,13.5,26.406c0,4.094-0.806,7.997-2.281,11.719
		c11.347,4.094,20.644,10.44,27.906,19.094c7.262,8.747,11.031,18.425,11.031,29.219c0,14.516-6.362,26.889-18.844,37.125
		c-12.595,10.236-27.693,15.344-45.281,15.344h86v-150H45.719z M36.656,932.323v7.531v7.438h9.062c6.127,0,9.188-2.413,9.188-7.438
		s-3.06-7.531-9.188-7.531H36.656z M36.656,977.354v22.531v22.406H64c7.489,0,13.959-2.127,19.406-6.5
		c5.333-4.373,8.062-9.672,8.062-15.906c0-6.142-2.729-11.439-8.062-15.906c-5.447-4.374-11.917-6.625-19.406-6.625H45.719H36.656z"
		/>
	<path id="rect2997-8-8-8-5-5-4-8" sodipodi:nodetypes="cccccccccc" inkscape:connector-curvature="0" fill="#FFCC00" d="
		M300,902.354l74.989,97.531l75.021-97.531H300z M330.817,992.354v60h88.344v-60l-44.172,57.594L330.817,992.354z"/>
	<path id="rect2997-4-8-4-3-7-8-9" inkscape:connector-curvature="0" fill="#2A7FFF" d="M150,902.354v150l75-150H150z M225,902.354
		l75,150v-150H225z M225,975.573l-38.375,76.781h76.75L225,975.573z"/>
	<g id="flowRoot2992" transform="translate(0,902.35221)">
	</g>
</g>
</svg>
